<?xml version="1.0" encoding="UTF-8" standalone="no"?>
<svg
   height="182"
   width="160"
   version="1.1"
   id="svg9"
   sodipodi:docname="back-standing-alt.svg"
   inkscape:version="1.4.2 (ebf0e940d0, 2025-05-08)"
   xmlns:inkscape="http://www.inkscape.org/namespaces/inkscape"
   xmlns:sodipodi="http://sodipodi.sourceforge.net/DTD/sodipodi-0.dtd"
   xmlns:xlink="http://www.w3.org/1999/xlink"
   xmlns="http://www.w3.org/2000/svg"
   xmlns:svg="http://www.w3.org/2000/svg">
  <sodipodi:namedview
     id="namedview9"
     pagecolor="#ffffff"
     bordercolor="#000000"
     borderopacity="0.25"
     inkscape:showpageshadow="2"
     inkscape:pageopacity="0.0"
     inkscape:pagecheckerboard="0"
     inkscape:deskcolor="#d1d1d1"
     inkscape:zoom="2.1923077"
     inkscape:cx="80.052632"
     inkscape:cy="91"
     inkscape:window-width="1908"
     inkscape:window-height="600"
     inkscape:window-x="4"
     inkscape:window-y="25"
     inkscape:window-maximized="1"
     inkscape:current-layer="svg9" />
  <defs
     id="defs1">
    <path
       d="M1.35 0h.2l.55.1.45.35q.45.45.45 1L2.55 2.6q-.45.4-1 .4l-.8-.2-.25-.2-.45-.7v-.15L0 1.45v-.1q.05-.5.5-.9l.25-.2Q1 .05 1.3 0h.05m.45.85L1.55.8Q1.2.75 1 1q-.2.15-.2.45v.15l.15.45H1l.05.05.2.1.3.05.55-.2.15-.6-.05-.3L2.1 1 2.05.95 1.9.85h-.1"
       fill-rule="evenodd"
       id="a" />
    <inkscape:path-effect
       effect="bspline"
       id="path-effect10"
       is_visible="true"
       lpeversion="1.3"
       weight="33.333333"
       steps="2"
       helper_size="0"
       apply_no_weight="true"
       apply_with_weight="true"
       only_selected="false"
       uniform="false" />
    <inkscape:path-effect
       effect="bspline"
       id="path-effect11"
       is_visible="true"
       lpeversion="1.3"
       weight="33.333333"
       steps="2"
       helper_size="0"
       apply_no_weight="true"
       apply_with_weight="true"
       only_selected="false"
       uniform="false" />
    <inkscape:path-effect
       effect="bspline"
       id="path-effect12"
       is_visible="true"
       lpeversion="1.3"
       weight="33.333333"
       steps="2"
       helper_size="0"
       apply_no_weight="true"
       apply_with_weight="true"
       only_selected="false"
       uniform="false" />
    <inkscape:path-effect
       effect="bspline"
       id="path-effect13"
       is_visible="true"
       lpeversion="1.3"
       weight="33.333333"
       steps="2"
       helper_size="0"
       apply_no_weight="true"
       apply_with_weight="true"
       only_selected="false"
       uniform="false" />
    <inkscape:path-effect
       effect="bspline"
       id="path-effect14"
       is_visible="true"
       lpeversion="1.3"
       weight="33.333333"
       steps="2"
       helper_size="0"
       apply_no_weight="true"
       apply_with_weight="true"
       only_selected="false"
       uniform="false" />
    <inkscape:path-effect
       effect="bspline"
       id="path-effect15"
       is_visible="true"
       lpeversion="1.3"
       weight="33.333333"
       steps="2"
       helper_size="0"
       apply_no_weight="true"
       apply_with_weight="true"
       only_selected="false"
       uniform="false" />
    <inkscape:path-effect
       effect="bspline"
       id="path-effect16"
       is_visible="true"
       lpeversion="1.3"
       weight="33.333333"
       steps="2"
       helper_size="0"
       apply_no_weight="true"
       apply_with_weight="true"
       only_selected="false"
       uniform="false" />
    <inkscape:path-effect
       effect="bspline"
       id="path-effect17"
       is_visible="true"
       lpeversion="1.3"
       weight="33.333333"
       steps="2"
       helper_size="0"
       apply_no_weight="true"
       apply_with_weight="true"
       only_selected="false"
       uniform="false" />
  </defs>
  <circle
     cx="1505.03"
     cy="474.652"
     r="16.705"
     style="fill:#b05d02;stroke:#000;stroke-width:1px"
     transform="matrix(-1.00234 0 0 1.00234 1608.187 -405.963)"
     id="circle1" />
  <path
     d="M1536.52 481.049c-1.65 4.247 8.5 13.966 19.94 10.966"
     style="fill:none;stroke:#000;stroke-width:.7px"
     transform="matrix(-1.43518 0 0 1.43518 2317.8 -630.329)"
     id="path1" />
  <path
     d="M1549.1 476.555c5.86 10.098 1.61 28.004-8.86 21.659-4.16-1.215-8.17-10.38-5.9-11.999 1.35 8.703 12.47 15.682 14.48 3.246.88-5.397-13.81-9.565-6.69-12.952 2.38-.923 4.69-.74 6.97.046Z"
     style="fill:none;stroke:#000;stroke-width:.7px"
     transform="matrix(-1.43518 0 0 1.43518 2317.8 -630.329)"
     id="path2" />
  <path
     d="M1552.73 496.807c.33-5.022.57-5.887 3.73-11.166"
     style="fill:none;stroke:#000;stroke-width:.7px"
     transform="matrix(-1.43518 0 0 1.43518 2317.8 -630.329)"
     id="path3" />
  <path
     d="M.25-60h3.9l1.2.55 3.85-8.6 3.85 8.6L14.3-60l3.15 3.05 1.15 1.1-.4.4.1.1c1.4 1.367 2.183 2.883 2.35 4.55v.6c0 1.1-.267 2.133-.8 3.1l-.25.45-1.4 1.7.1.1-.3.3-3.25.9v4.7l.6 1.35c1.033 0 1.75.2 2.15.6.533.533.8 1.2.8 2 0 .733-.25 1.35-.75 1.85-.7.7-2.05 1.117-4.05 1.25l.55 1.5-.05 2.75-1.5 1.25v12.25l-.85 4.6h-1.5V-3c0 .467-.15.85-.45 1.15-.367.367-.9.55-1.6.55-.733 0-1.283-.183-1.65-.55-.267-.3-.4-.683-.4-1.15v-6.55H4.5l-2.35-3.5H.4l-3.55 3.5V-3c0 .467-.15.85-.45 1.15-.367.367-.9.55-1.6.55-.733 0-1.283-.183-1.65-.55-.267-.3-.4-.683-.4-1.15v-6.55H-8.8l-1.7-1.1-1.75-3.9v-3.9l.45-.4c.5-.4.95-.917 1.35-1.55l-1.25-1c-.267.433-.5.75-.7.95l.4-10.95 1.75-12.8.4.35.75-.7-1-1.1c-1-1.267-1.5-2.65-1.5-4.15l.1-1c.233-1.533 1.033-2.95 2.4-4.25l-.75-.75.5-3.95.65.3 3.85-8.6 3.85 8.6L.25-60m17.2 3.05 1.15 1.1-1.15-1.1M13.1-43.6l.75-1.55v-1.35h-1.5v1.45h.55l-.55 1.45h.75m-2.9 0 .75-1.55v-1.35h-1.5v1.45H10l-.55 1.45h.75"
     style="fill:#fff"
     transform="matrix(2 0 0 2 79.641 142)"
     id="path4" />
  <path
     d="m80.141 22-2.5 1.1-7.7-17.2-7.7 17.2-1.3-.6-1.1-.5 10.1-22 10.2 22m-20.2 8.4 1.5 1.5c-2.734 2.6-4.334 5.434-4.8 8.5l-.2 2c0 3 1 5.766 3 8.3l2 2.2-1.5 1.4-.8-.7-1.2-1.4c-2.4-2.934-3.6-6.2-3.6-9.8l.2-2c.4-3.734 2.2-7.066 5.4-10m-5.1 70.7c.4-.4.866-1.034 1.4-1.9l2.5 2c-.8 1.266-1.7 2.3-2.7 3.1l-.9.8c-.934.6-2 .9-3.2.9-1.266 0-3.034-.734-5.3-2.2-1.534-.866-2.8-1.3-3.8-1.3-1.134 0-2 .366-2.6 1.1l-1.2 1.9-2.7-1.5 2.4-3.3c1.134-1.066 2.434-1.6 3.9-1.6 1.466 0 2.966.534 4.5 1.6 2.2 1.134 3.9 1.7 5.1 1.7.866 0 1.734-.434 2.6-1.3m7.2 21.8h3.1V136c0 .934.266 1.7.8 2.3.734.734 1.834 1.1 3.3 1.1 1.4 0 2.466-.366 3.2-1.1.6-.6.9-1.366.9-2.3v-13.1h3v13.2c0 1.666-.534 3.034-1.6 4.1-1.2 1.2-3.034 1.8-5.5 1.8-2.534 0-4.4-.6-5.6-1.8-1.066-1.066-1.6-2.434-1.6-4.1v-13.2m26.6 0h3.1V136c0 .934.266 1.7.8 2.3.734.734 1.834 1.1 3.3 1.1 1.4 0 2.466-.366 3.2-1.1.6-.6.9-1.366.9-2.3v-13.1h3v13.2c0 1.666-.534 3.034-1.6 4.1-1.2 1.2-3.034 1.8-5.5 1.8-2.534 0-4.4-.6-5.6-1.8-1.066-1.066-1.6-2.434-1.6-4.1v-13.2m27.6-70.6-.2-.2 2.8-3.4.5-.9c1.066-1.934 1.6-4 1.6-6.2v-1.2c-.334-3.334-1.9-6.366-4.7-9.1l-.2-.2.8-.8.6-.7c3.4 3.134 5.266 6.734 5.6 10.8v1.2c0 2.534-.6 4.9-1.8 7.1-.934 1.666-2.2 3.266-3.8 4.8l-1.2-1.2m-8-30.3-2.5 1.1-7.7-17.2-7.7 17.2-2.4-1.1 10.1-22 10.2 22m-8.2 32.8h-1.5l1.1-2.9h-1.1V49h3v2.7l-1.5 3.1m5.8 0h-1.5l1.1-2.9h-1.1V49h3v2.7l-1.5 3.1"
     id="path5" />
  <path
     d="M4.15-60H.25M12.5-14.15V-26.4m6.1-29.45-1.15-1.1"
     style="fill:none;fill-rule:nonzero;stroke:#000;stroke-width:1px;stroke-miterlimit:4"
     transform="matrix(2 0 0 2 79.641 142)"
     id="path6" />
  <path
     d="m55.216 60.31 3.34-5.937 3.879.852c12.993 13.066 35.453 12.034 42.006.421 0 0 2.064 3.77 2.467 6.864 1.294 9.944 2.145 29.513 1.435 32.838l-54.066-.733c-.689-12.748-2.284-21.557.939-34.305Zm6.244 1.015c-3.701-.547-4.983 1.333-6.772 6.812-2.055 6.295.897 16.76 5.783 16.76 4.887 0 8.016-4.018 8.535-10.619.439-5.59-1.982-12.132-7.546-12.953Z"
     style="fill:#c7c7c7;stroke:#000;stroke-width:2px;stroke-linecap:butt"
     transform="scale(-1 1) rotate(-3.493 0 2755.786)"
     id="path7" />
  <path
     d="m91.702 66.897 3.366.097 1.092 2.193-.391 6.237-2.99 2.007 2.771 1.984-.303 7.266-2.152 1.843-2.984-.196-1.244-2.176.648-6.94 3.264-1.781-2.836-2.509.16-6.187 1.599-1.838Z"
     style="fill:none;stroke:#ffdb69;stroke-width:2.5px;stroke-linecap:butt"
     transform="translate(-17.901 2.569)"
     id="path8" />
  <path
     d="M70.252 68.803c4.524-2.168 9.048-3.314 13.572-3.526 3.84.403 5.331 1.406 6.318 3.14 1.162 2.041 1.304 5.054-.974 8.7-3.395 1.558-7.188 2.319-11.421 2.2"
     style="fill:#fff;stroke:#000;stroke-width:3px;stroke-linecap:butt"
     transform="translate(27.885 -.172)"
     id="path9" />
  <g
     id="g17"
     transform="translate(-4.4902875e-4,3.9795637e-4)">
    <path
       style="fill:#000000;fill-opacity:1"
       d="m 99.134504,27.292398 c -0.532164,1.824562 -2.508773,4.25731 -2.850865,8.590706 -0.342093,4.333395 0.950279,10.567188 2.640665,14.232066 1.690386,3.664878 3.778646,4.760654 7.128556,4.80117 3.3499,0.04052 7.96105,-0.974229 10.88841,-2.747375 2.92735,-1.773146 4.17056,-4.304482 4.50786,-7.271956 0.3373,-2.967475 -0.23135,-6.370804 -1.504,-9.2889 -1.27265,-2.918096 -3.24922,-5.350798 -5.56796,-7.365434 -2.31874,-2.014636 -4.97951,-3.611096 -7.26023,-6.462014 -2.28072,-2.850918 -4.18127,-6.956101 -5.66373,-6.956059 -1.48247,4.2e-5 -2.546777,4.105223 -2.622791,6.766053 -0.07602,2.660831 0.836249,3.877181 0.304085,5.701743 z"
       id="path10"
       inkscape:path-effect="#path-effect10"
       inkscape:original-d="m 100.57895,26.684211 c -1.976611,2.432748 -3.953219,4.865497 -5.929827,7.298245 1.292423,6.234043 2.584795,12.467836 3.877193,18.701755 2.088374,1.095838 4.176634,2.191613 6.265014,3.287452 4.61143,-1.014807 9.22258,-2.029553 13.83402,-3.044361 1.24327,-2.531485 2.48648,-5.062817 3.72975,-7.594302 -0.56867,-3.403466 -1.13732,-6.806795 -1.70598,-10.210193 -1.97664,-2.432797 -3.95321,-4.865497 -5.92982,-7.298246 -2.66087,-1.596523 -5.32164,-3.192982 -7.98246,-4.789473 -1.90062,-4.105346 -3.80117,-8.210527 -5.70175,-12.31579 -1.064351,4.105346 -2.128657,8.210527 -3.192985,12.31579 0.912299,1.216398 1.824562,2.432748 2.736845,3.649123 z"
       sodipodi:nodetypes="cccccccccccc" />
    <path
       style="fill:#000000;fill-opacity:1"
       d="m 95.016196,26.999042 c -0.916892,-0.0023 -1.694766,0.310214 -2.22694,0.842388 -0.532174,0.532174 -0.818607,1.283962 -0.357843,1.917122 0.460765,0.63316 1.668658,1.147648 2.728791,0.774045 1.060133,-0.373602 1.972377,-1.63525 1.900568,-2.424684 -0.07181,-0.789434 -1.127684,-1.106565 -2.044576,-1.108871 z"
       id="path11"
       inkscape:path-effect="#path-effect11"
       inkscape:original-d="m 94.877193,26.684211 c -0.777889,0.312525 -1.555763,0.625045 -2.333667,0.937576 -0.286444,0.751817 -0.572877,1.503605 -0.859315,2.255406 1.207967,0.514519 2.41586,1.029007 3.623827,1.543526 0.912299,-1.261724 1.824543,-2.523372 2.736842,-3.785097 -1.055917,-0.317143 -2.111792,-0.634274 -3.167687,-0.951411 z"
       sodipodi:nodetypes="cccccc" />
    <path
       style="fill:#000000;fill-opacity:1"
       d="m 90.539648,33.92045 c 0.551006,-0.188149 1.653017,-0.564445 2.405614,-0.510684 0.752597,0.05376 1.155764,0.537562 1.464867,1.451439 0.309103,0.913876 0.524125,2.257766 0.241895,3.158194 -0.28223,0.900429 -1.061686,1.357351 -1.868044,1.397665 -0.806358,0.04031 -1.63957,-0.335975 -1.800835,-0.792912 -0.161265,-0.456937 0.349414,-0.994493 0.618198,-1.451428 0.268785,-0.456936 0.295664,-0.833225 0.05375,-1.169207 -0.241909,-0.335982 -0.752587,-0.631637 -1.075128,-0.940741 -0.322541,-0.309104 -0.45693,-0.631638 -0.524126,-0.792908 -0.0672,-0.16127 -0.0672,-0.16127 0.483805,-0.349418 z"
       id="path12"
       inkscape:path-effect="#path-effect12"
       inkscape:original-d="m 89.988642,34.108598 c 1.102012,-0.376296 2.204023,-0.752593 3.306034,-1.12889 0.403183,0.48382 0.80635,0.96762 1.209525,1.45143 0.215031,1.343943 0.430053,2.687833 0.64508,4.031749 -0.779487,0.456941 -1.558943,0.913863 -2.338415,1.370795 -0.833244,-0.376304 -1.666456,-0.752593 -2.499684,-1.12889 0.510698,-0.537577 1.021376,-1.075133 1.532065,-1.612699 0.02688,-0.376305 0.05376,-0.752594 0.08064,-1.12889 -0.510699,-0.295668 -1.021377,-0.591323 -1.532065,-0.886985 -0.134394,-0.322546 -0.268783,-0.64508 -0.403175,-0.96762 z"
       transform="translate(1.1288898,-0.08063498)" />
    <path
       style="fill:#000000;fill-opacity:1"
       d="m 93.805364,47.184906 c 0.349419,0.01344 1.048255,0.04032 1.72022,0.456943 0.671965,0.416623 1.317032,1.222956 1.558935,2.029314 0.241904,0.806358 0.08064,1.612692 0.228472,2.445928 0.147835,0.833237 0.604758,1.693327 0.524117,2.392169 -0.08064,0.698841 -0.698831,1.236397 -1.464872,1.330468 -0.766042,0.09407 -1.679887,-0.255341 -2.177137,-0.806354 -0.49725,-0.551013 -0.577883,-1.303591 -0.510685,-2.10995 0.0672,-0.806358 0.28222,-1.666448 0.120945,-2.284653 -0.161275,-0.618205 -0.698831,-0.994494 -0.81978,-1.532068 -0.12095,-0.537573 0.174706,-1.236396 0.322536,-1.585814 0.147831,-0.349418 0.147831,-0.349423 0.497249,-0.335983 z"
       id="path13"
       inkscape:path-effect="#path-effect13"
       inkscape:original-d="m 93.455946,47.171466 c 0.698837,0.02688 1.397673,0.05376 2.09651,0.08064 0.645093,0.806366 1.29016,1.612699 1.93524,2.419049 -0.161274,0.806366 -0.32254,1.6127 -0.48381,2.41905 0.45694,0.860123 0.913863,1.720213 1.370794,2.580319 -0.618214,0.537577 -1.236403,1.075133 -1.854604,1.6127 -0.913882,-0.349425 -1.827727,-0.698837 -2.74159,-1.048255 -0.08064,-0.752608 -0.16127,-1.505186 -0.241905,-2.25778 0.215031,-0.860123 0.430054,-1.720213 0.64508,-2.580319 -0.537577,-0.376304 -1.075133,-0.752593 -1.612699,-1.12889 0.295667,-0.69885 0.591323,-1.397673 0.886984,-2.096509 z"
       transform="matrix(1.0494756,0,0,0.85126358,-4.2765743,7.017512)" />
    <path
       style="fill:#000000;fill-opacity:1"
       d="m 96.869494,45.478131 c -0.671958,-0.215027 -1.478308,-0.752593 -1.814286,-1.451439 -0.335978,-0.698845 -0.201589,-1.558934 0.04032,-2.338412 0.241908,-0.779479 0.59132,-1.478301 1.048257,-1.854598 0.456937,-0.376298 1.021371,-0.430053 1.451427,0.564465 0.430056,0.994519 0.725712,3.037231 0.604754,4.112365 -0.120958,1.075134 -0.658514,1.182646 -1.330472,0.967619 z"
       id="path14"
       inkscape:path-effect="#path-effect14"
       inkscape:original-d="m 97.003886,45.800671 c -0.80635,-0.537567 -1.6127,-1.075133 -2.41905,-1.6127 0.134394,-0.860124 0.268783,-1.720213 0.403175,-2.580319 0.349425,-0.698851 0.698837,-1.397673 1.048255,-2.09651 0.564456,-0.05376 1.12889,-0.107513 1.693335,-0.16127 0.295667,2.042794 0.591323,4.085506 0.886984,6.128259 -0.537577,0.107515 -1.075133,0.215027 -1.612699,0.32254 z" />
    <path
       style="fill:#000000;fill-opacity:1"
       d="m 98.603145,48.421308 c -0.443492,-0.282223 -0.577883,0.443492 -0.483806,1.128896 0.09408,0.685404 0.416611,1.330471 0.860109,1.612693 0.443498,0.282221 1.007932,0.201588 0.913849,-0.483822 -0.09408,-0.685409 -0.84666,-1.975544 -1.290152,-2.257767 z"
       id="path15"
       inkscape:path-effect="#path-effect15"
       inkscape:original-d="m 98.294045,47.413371 c -0.134391,0.725714 -0.268783,1.451429 -0.403175,2.177144 0.322547,0.645093 0.64508,1.29016 0.96762,1.93524 0.564456,-0.08064 1.12889,-0.16127 1.69333,-0.241905 -0.752603,-1.290186 -1.505181,-2.58032 -2.257775,-3.870479 z"
       transform="matrix(1.4893091,0,0,1.2727181,-47.996799,-13.994668)" />
    <path
       style="fill:#000000;fill-opacity:1"
       d="m 96.412563,33.167856 c -0.107514,-0.456931 -0.32254,-1.370794 -0.134386,-1.988999 0.188154,-0.618205 0.779465,-0.940738 1.464871,-1.088569 0.685405,-0.147832 1.464861,-0.120956 1.276701,0.497257 -0.18816,0.618213 -1.343905,1.827714 -1.921789,2.432476 -0.577884,0.604762 -0.577884,0.604767 -0.685397,0.147835 z"
       id="path16"
       inkscape:path-effect="#path-effect16"
       inkscape:original-d="m 96.520076,33.624788 c -0.215027,-0.913863 -0.430053,-1.827726 -0.64508,-2.741589 0.591335,-0.322547 1.182646,-0.64508 1.77397,-0.96762 0.779487,0.02688 1.558943,0.05376 2.338414,0.08063 -1.155791,1.209549 -2.311536,2.41905 -3.467304,3.628574 z"
       transform="matrix(1,0,0,1.3245404,0,-9.7412687)" />
    <path
       style="fill:#000000;fill-opacity:1"
       d="m 99.879864,23.182555 c -0.671957,-0.120952 -1.290147,0.443484 -1.585813,1.370805 -0.295665,0.92732 -0.268786,2.217455 0.04032,3.238839 0.309108,1.021384 0.900407,1.773946 1.558939,1.249809 0.658528,-0.524137 1.384228,-2.324948 1.384228,-3.628548 0,-1.303601 -0.72572,-2.109952 -1.397676,-2.230905 z"
       id="path17"
       inkscape:path-effect="#path-effect17"
       inkscape:original-d="m 99.826105,22.497161 c -0.618198,0.564442 -1.236388,1.128878 -1.8546,1.693334 0.02688,1.290185 0.05376,2.58032 0.08064,3.870479 0.591336,0.752609 1.182635,1.505171 1.77397,2.25778 0.725725,-1.800885 1.451425,-3.601696 2.177145,-5.402544 -0.72572,-0.80635 -1.45144,-1.612702 -2.177155,-2.419049 z"
       sodipodi:nodetypes="scccss" />
  </g>
  <path
     d="M107.46 30.1h6.3"
     stroke-width="3"
     transform="translate(.338 1.6)"
     id="gikopoipoi_eyes_closed"
     style="display:none;fill:#000000;fill-opacity:1"
     fill="none"
     stroke="#000"
     stroke-linecap="round"
     stroke-linejoin="round" />
  <use
     height="3"
     transform="matrix(2.0124 0 0 2 107.922 28.6)"
     width="4.65"
     xlink:href="#a"
     id="gikopoipoi_eyes_open"
     style="display:inline;fill:#ffffff;fill-opacity:1" />
</svg>
