<?xml version="1.0" encoding="UTF-8" standalone="no"?>
<svg
   height="182"
   width="160"
   version="1.1"
   id="svg13"
   sodipodi:docname="front-standing-alt.svg"
   inkscape:version="1.4.2 (ebf0e940d0, 2025-05-08)"
   xmlns:inkscape="http://www.inkscape.org/namespaces/inkscape"
   xmlns:sodipodi="http://sodipodi.sourceforge.net/DTD/sodipodi-0.dtd"
   xmlns="http://www.w3.org/2000/svg"
   xmlns:svg="http://www.w3.org/2000/svg">
  <defs
     id="defs13">
    <inkscape:path-effect
       effect="bspline"
       id="path-effect17"
       is_visible="true"
       lpeversion="1.3"
       weight="33.333333"
       steps="2"
       helper_size="0"
       apply_no_weight="true"
       apply_with_weight="true"
       only_selected="false"
       uniform="false" />
    <inkscape:path-effect
       effect="bspline"
       id="path-effect17-9"
       is_visible="true"
       lpeversion="1.3"
       weight="33.333333"
       steps="2"
       helper_size="0"
       apply_no_weight="true"
       apply_with_weight="true"
       only_selected="false"
       uniform="false" />
  </defs>
  <sodipodi:namedview
     id="namedview13"
     pagecolor="#ffffff"
     bordercolor="#000000"
     borderopacity="0.25"
     inkscape:showpageshadow="2"
     inkscape:pageopacity="0.0"
     inkscape:pagecheckerboard="0"
     inkscape:deskcolor="#d1d1d1"
     showgrid="false"
     inkscape:zoom="4.6703297"
     inkscape:cx="79.972941"
     inkscape:cy="91.107058"
     inkscape:window-width="1908"
     inkscape:window-height="600"
     inkscape:window-x="4"
     inkscape:window-y="25"
     inkscape:window-maximized="1"
     inkscape:current-layer="svg13" />
  <path
     d="M.4-60h3.9l1.2.55 3.9-8.6 3.85 8.6L14.5-60l3.15 3.05 1.15 1.05-.45.45.1.1c1.4 1.367 2.183 2.883 2.35 4.55v.6c0 1.1-.267 2.133-.8 3.1l-.25.45-1.4 1.7.15.15-.3.25-3.25.9v4.7l-3.25.7-3.1.9.65 1.6 3.3-1.25 3-.6c1.033 0 1.75.2 2.15.6.533.533.8 1.2.8 2 0 .733-.25 1.35-.75 1.85-.7.7-2.067 1.117-4.1 1.25l-1.25.05.35 1.5 1.5-.05-.05 2.75-1.5 1.25v12.25l-.85 4.6h-1.5V-3c0 .467-.15.85-.45 1.15-.367.367-.9.55-1.6.55-.767 0-1.317-.183-1.65-.55-.3-.3-.433-.683-.4-1.15v-6.55h-1.6l-2.35-3.5H.55L-3-9.55V-3c0 .467-.15.85-.45 1.15-.367.367-.9.55-1.6.55-.733 0-1.283-.183-1.65-.55-.3-.3-.433-.683-.4-1.15v-6.55h-1.55l-1.7-1.1-1.75-3.9v-3.9l.45-.4c.5-.4.95-.917 1.35-1.55l-1.25-1-.7.95.4-10.95 1.75-12.8.4.35.75-.7-1-1.1c-1.033-1.267-1.533-2.65-1.5-4.15l.05-1c.233-1.533 1.05-2.95 2.45-4.25l-.75-.75.5-3.95.65.3 3.85-8.6 3.85 8.6L.4-60m10.1 14.7v1.9h1.3v-3.25h-1.15v-9.45h-6.2v3.85l-.05 1.1-.45 2.45-1 2.05H2v3.3h1.35v-1.95h7.15m-6.05-1.35.5-.9.9-3.55v-.05l.05-.35v-3.25h3.4v8.1H4.45m14.3-9.2-1.1-1.1 1.1 1.1M5.5-37.95C4.8-38.65 3.717-39 2.25-39l-4 .75-3.1.9.65 1.6L-.9-37l3-.6c1.033 0 1.75.2 2.15.6.533.533.8 1.2.8 2 0 .733-.25 1.35-.75 1.85-.7.7-2.05 1.117-4.05 1.25l-1.3.05.35 1.5c2.633-.033 4.6-.55 5.9-1.55l.45-.35c.667-.667 1-1.617 1-2.85-.033-1.2-.417-2.15-1.15-2.85M-7.15-43.6l.75-1.55v-1.35h-1.5v1.45h.55l-.55 1.45h.75M-5-45.05h.55L-5-43.6h.75l.75-1.55v-1.35H-5v1.45"
     style="fill:#fff"
     transform="matrix(2 0 0 2 79.341 142)"
     id="path1" />
  <path
     d="m87.941 22 10.2-22 10.2 22-2.5 1.1-7.7-17.2-7.8 17.2-2.4-1.1m29 8.2.5-.6c3.4 3.134 5.266 6.734 5.6 10.8v1.2c0 2.534-.6 4.9-1.8 7.1-.934 1.666-2.2 3.266-3.8 4.8l-1.4-1.4 2.8-3.4.5-.9c1.066-1.934 1.6-4 1.6-6.2v-1.2c-.334-3.334-1.9-6.366-4.7-9.1l-.2-.2.9-.9m-7.7 33.9 1.5-.1c2.934 0 5.1.7 6.5 2.1 1.466 1.4 2.2 3.3 2.2 5.7 0 2.466-.666 4.366-2 5.7l-.8.7c-2.066 1.6-5 2.6-8.8 3l-3 .1-.7-3 2.5-.1c4.066-.266 6.8-1.1 8.2-2.5 1-1 1.5-2.234 1.5-3.7 0-1.6-.534-2.934-1.6-4-.8-.8-2.234-1.2-4.3-1.2l-6 1.2-6.6 2.5-1.3-3.2 6.2-1.8 6.5-1.4m-6.2 58.8v13.2c0 1.666-.534 3.034-1.6 4.1-1.2 1.2-3.034 1.8-5.5 1.8-2.6 0-4.5-.6-5.7-1.8-1.066-1.066-1.6-2.434-1.6-4.1v-13.2h3.2V136c-.066.934.2 1.7.8 2.3.666.734 1.766 1.1 3.3 1.1 1.4 0 2.466-.366 3.2-1.1.6-.6.9-1.366.9-2.3v-13.1h3m-29.7 0h3v13.2c0 1.666-.534 3.034-1.6 4.1-1.2 1.2-3.034 1.8-5.5 1.8-2.534 0-4.4-.6-5.6-1.8-1.134-1.066-1.666-2.434-1.6-4.1v-13.2h3.1V136c-.066.934.2 1.7.8 2.3.734.734 1.834 1.1 3.3 1.1 1.4 0 2.466-.366 3.2-1.1.6-.6.9-1.366.9-2.3v-13.1m-18.2-17.8c-.934.6-2 .9-3.2.9-1.334 0-3.134-.734-5.4-2.2l-3.8-1.3c-1.134 0-2 .366-2.6 1.1l-1.2 1.9-2.7-1.5 2.4-3.3c1.134-1.066 2.434-1.6 3.9-1.6 1.466 0 3 .534 4.6 1.6 2.2 1.134 3.9 1.7 5.1 1.7.8 0 1.666-.434 2.6-1.3l1.4-1.9 2.5 2c-.8 1.266-1.7 2.3-2.7 3.1l-.9.8m4-51.5-1.2-1.4c-2.466-2.934-3.666-6.2-3.6-9.8l.1-2c.466-3.734 2.3-7.066 5.5-10l1.5 1.5c-2.8 2.6-4.434 5.434-4.9 8.5l-.1 2c-.066 3 .934 5.766 3 8.3l2 2.2-1.5 1.4-.8-.7m1.8-31.1-1.1-.5 10.1-22 10.2 22-2.5 1.1-7.7-17.2-7.7 17.2-1.3-.6m22.4 32.7v-6.5h1.9l2-4.1.9-4.9.1-2.2v-7.7h12.4v18.9h2.3v6.5h-2.6v-3.9h-14.3v3.9h-2.7m14.6-22.7v-.1h-6.9v6.5l-.1.7v.1l-1.8 7.1-1 1.8-.1.1h9.9V32.5m-7.6 33.6c1.466 1.4 2.234 3.3 2.3 5.7 0 2.466-.666 4.366-2 5.7l-.9.7c-2.6 2-6.534 3.034-11.8 3.1l-.7-3 2.6-.1c4-.266 6.7-1.1 8.1-2.5 1-1 1.5-2.234 1.5-3.7 0-1.6-.534-2.934-1.6-4-.8-.8-2.234-1.2-4.3-1.2l-6 1.2-6.6 2.5-1.3-3.2 6.2-1.8 8-1.5c2.934 0 5.1.7 6.5 2.1m-21-14.2V49h3v2.7l-1.5 3.1h-1.5l1.1-2.9h-1.1m-4.3 2.9h-1.5l1.1-2.9h-1.1V49h3v2.7l-1.5 3.1"
     id="path2" />
  <path
     d="M.4-60h3.9m8.4 33.6v9.45m0 0v2.8m4.95-42.8 1.1 1.1"
     style="fill:none;fill-rule:nonzero;stroke:#000;stroke-width:1px"
     transform="matrix(2 0 0 2 79.341 142)"
     id="path3" />
  <path
     d="m57.264 65.446 12.391-9.819 9.154.309c12.992 13.066 17.822 12.11 24.374.498l5.074.975 1.195 8.333c-.402-.566-1.951.163-2.184-.338-2.55-5.487-4.887-5.474-7.192 2.271-1.51 6.646-.594 16.109 4.522 16.906 1.536-.695 2.388-2.414 2.697-4.949.086 1.365 1.794-.528 1.896.766.331 4.24-.916 11.336-.848 14.95l-54.066-.733c-.689-12.748-.236-16.421 2.987-29.169Zm19.174-5.408c-4.887 0-8.854 5.376-8.854 11.997 0 6.622 3.967 11.997 8.854 11.997 4.886 0 8.853-5.375 8.853-11.997 0-6.621-3.967-11.997-8.853-11.997Z"
     style="fill:#c7c7c7;stroke:#000;stroke-width:2px;stroke-linecap:butt;stroke-miterlimit:1.5"
     id="path4" />
  <path
     d="m91.702 66.897 3.334.161 1.189 2.903-.456 6.108-2.619 1.362 2.175 2.339-.143 7.072-2.087 1.682-2.984-.196-1.244-2.563.196-6.133 3.716-2.201-2.61-2.283-.163-6.413 1.696-1.838Z"
     style="fill:none;stroke:#ffdb69;stroke-width:2.5px;stroke-linecap:butt;stroke-miterlimit:1.5"
     transform="translate(-.909 3.635)"
     id="path5" />
  <circle
     cx="1505.03"
     cy="474.652"
     r="16.705"
     style="fill:#b05d02;stroke:#000;stroke-width:1px;stroke-miterlimit:1.5"
     transform="matrix(-1.00234 0 0 1.00234 1608.827 -405.118)"
     id="circle5" />
  <path
     d="M1536.52 481.049c-1.65 4.247 8.5 13.966 19.94 10.966"
     style="fill:none;stroke:#000;stroke-width:.7px;stroke-miterlimit:1.5"
     transform="matrix(-1.43518 0 0 1.43518 2318.44 -629.484)"
     id="path6" />
  <path
     d="M1549.1 476.555c5.86 10.098 1.61 28.004-8.86 21.659-4.16-1.215-8.17-10.38-5.9-11.999 1.35 8.703 12.47 15.682 14.48 3.246.88-5.397-13.81-9.565-6.69-12.952 2.38-.923 4.69-.74 6.97.046Z"
     style="fill:none;stroke:#000;stroke-width:.7px;stroke-miterlimit:1.5"
     transform="matrix(-1.43518 0 0 1.43518 2318.44 -629.484)"
     id="path7" />
  <path
     d="M1552.73 496.807c.33-5.022.57-5.887 3.73-11.166"
     style="fill:none;stroke:#000;stroke-width:.7px;stroke-miterlimit:1.5"
     transform="matrix(-1.43518 0 0 1.43518 2318.44 -629.484)"
     id="path8" />
  <path
     d="M70.252 68.803c4.524-2.168 9.048-3.314 13.572-3.526 3.84.403 5.331 1.406 6.318 3.14 1.162 2.041 1.304 5.054-.974 8.7-3.395 1.558-7.188 2.319-11.421 2.2"
     style="fill:#fff;stroke:#000;stroke-width:3px;stroke-linecap:butt;stroke-miterlimit:1.5"
     id="path9" />
  <path
     style="clip-rule:evenodd;fill:#000000;fill-opacity:1;fill-rule:evenodd;stroke-linecap:round;stroke-linejoin:round"
     d="m 63.015415,16.441985 c -2.10624,5.764018 -2.257067,10.871968 -3.366567,14.535334 -1.1095,3.663366 -3.177543,5.881807 -3.754144,9.958266 -0.576601,4.07646 0.33831,10.010443 6.630906,13.589042 6.292596,3.578598 17.962113,4.801379 27.282661,4.373773 9.320548,-0.427606 16.290969,-2.505542 20.926419,-4.155284 4.63545,-1.649742 6.93531,-2.871071 8.70024,-5.562403 1.76492,-2.691331 2.9947,-6.852343 2.70589,-10.45937 -0.28881,-3.607028 -2.09618,-6.659629 -4.75218,-9.062663 -2.65599,-2.403034 -6.16029,-4.156208 -9.2444,-9.462011 C 105.06012,14.890866 102.39651,6.0329005 99.699979,5.4172603 97.00345,4.8016201 94.274111,12.428335 92.31486,16.670688 90.35561,20.913041 89.166628,21.770677 86.616138,22.334602 84.065649,22.898527 80.15388,23.168679 77.698443,19.036951 75.243007,14.905223 74.243982,6.3716125 71.713644,5.3147983 69.183305,4.2579841 65.121655,10.677967 63.015415,16.441985 Z"
     id="path17-1"
     inkscape:path-effect="#path-effect17-9"
     inkscape:original-d="m 61.060004,17.09795 c -0.150829,5.108053 -0.301655,10.216003 -0.452488,15.324159 -2.068168,2.218576 -4.136211,4.437017 -6.20438,6.655593 0.914966,5.934343 1.829877,11.868326 2.744844,17.802668 11.670226,1.222855 23.339743,2.445636 35.009972,3.668492 6.970867,-2.078069 13.941288,-4.156005 20.912178,-6.234079 2.30001,-1.221408 4.59987,-2.442738 6.89987,-3.664142 1.22985,-4.16126 2.45963,-8.322272 3.68949,-12.483537 -1.80748,-3.052789 -3.61485,-6.10539 -5.42233,-9.158179 -3.50451,-1.75328 -7.00881,-3.506452 -10.51332,-5.259732 C 105.06012,14.890866 102.39651,6.0329 99.732843,-2.8252449 97.00345,4.8016201 94.274111,12.428335 91.544663,20.055353 90.35561,20.913041 89.166628,21.770677 87.977574,22.628365 84.065649,22.898528 80.15388,23.168679 76.242032,23.438836 75.243007,14.905223 74.243982,6.3716125 73.244957,-2.1620002 69.183305,4.2579838 65.121655,10.677967 61.060004,17.09795 Z"
     sodipodi:nodetypes="cccccccccczcczsc"
     transform="translate(-0.39640102,2.8420514e-4)" />
  <g
     inkscape:groupmode="layer"
     id="layer1"
     inkscape:label="Layer 1"
     style="clip-rule:evenodd;fill-rule:evenodd;stroke-linecap:round;stroke-linejoin:round"
     transform="translate(0,-2.39e-4)">
    <path
       d="m 100.841,29.952239 v 18.9 h 2.4 v 6.5 h -2.8 v -3.9 h -14.4 v 3.9 h -2.7 v -6.5 h 1.9 l 2.1,-4.1 0.9,-4.9 0.1,-2.2 v -7.7 h 12.5 m -9.8,9.8 v 0.1 l -1.8,7.1 -1,1.8 -0.1,0.1 h 9.9 v -16.3 h -7 v 7.2"
       id="path1-3"
       style="fill:#ff0000;fill-opacity:1"
       sodipodi:nodetypes="ccccccccccccccccccccccccc" />
  </g>
  <g
     id="gikopoipoi_eyes_open">
    <path
       d="M1.35 0h.2l.55.1.45.35c.3.3.45.633.45 1L2.55 2.6c-.3.267-.633.4-1 .4l-.8-.2-.25-.2-.45-.7v-.15L0 1.45v-.1c.033-.333.2-.633.5-.9l.25-.2C.917.117 1.1.033 1.3 0h.05m.45.85L1.55.8C1.317.767 1.133.833 1 1c-.133.1-.2.25-.2.45v.15l.15.45H1l.05.05.2.1.3.05.55-.2.15-.6-.05-.3L2.1 1 2.05.95 1.9.85h-.1"
       transform="matrix(2.0124 0 0 2 72.133 27)"
       id="path10"
       style="fill:#ffffff;fill-opacity:1" />
    <path
       d="M1.35 0h.2l.55.1.45.35c.3.3.45.633.45 1L2.55 2.6c-.3.267-.633.4-1 .4l-.8-.2-.25-.2-.45-.7v-.15L0 1.45v-.1c.033-.333.2-.633.5-.9l.25-.2C.917.117 1.1.033 1.3 0h.05m.45.85L1.55.8C1.317.767 1.133.833 1 1c-.133.1-.2.25-.2.45v.15l.15.45H1l.05.05.2.1.3.05.55-.2.15-.6-.05-.3L2.1 1 2.05.95 1.9.85h-.1"
       transform="matrix(2.0124 0 0 2 105.974 27)"
       id="path11"
       style="fill:#ffffff;fill-opacity:1" />
  </g>
  <g
     id="gikopoipoi_eyes_closed"
     style="display:none">
    <path
       d="M107.46 30.1h6.3"
       style="fill:#000000;fill-rule:nonzero;stroke:#000;stroke-width:3px;fill-opacity:1"
       id="path12" />
    <path
       d="M-.05 1.55H3.1"
       style="fill:#000000;fill-rule:nonzero;stroke:#000;stroke-width:1.5px;fill-opacity:1"
       transform="matrix(2 0 0 2 73.719 27)"
       id="path13" />
  </g>
</svg>
